<svg xmlns="http://www.w3.org/2000/svg" xmlns:xlink="http://www.w3.org/1999/xlink" width="1800" height="2400" viewBox="0 0 1800 2400">
  <g>
<defs>
      <filter id="card-shadow" x="-20%" y="-25%" width="140%" height="160%">
        <feDropShadow dx="0" dy="3" stdDeviation="4" flood-color="#12271e" flood-opacity="0.10"/>
      </filter>
      <marker id="arrow-sequence" markerWidth="17" markerHeight="13" refX="15" refY="6.5" orient="auto" markerUnits="userSpaceOnUse">
    <path d="M1,1 L16,6.5 L1,12 Z" fill="#53675d" stroke="#ffffff" stroke-width="1.3" stroke-linejoin="round"/>
  </marker>
      <marker id="arrow-message" markerWidth="17" markerHeight="13" refX="15" refY="6.5" orient="auto" markerUnits="userSpaceOnUse">
    <path d="M1,1 L16,6.5 L1,12 Z" fill="#0f8a65" stroke="#ffffff" stroke-width="1.3" stroke-linejoin="round"/>
  </marker>
      <marker id="arrow-loop" markerWidth="17" markerHeight="13" refX="15" refY="6.5" orient="auto" markerUnits="userSpaceOnUse">
    <path d="M1,1 L16,6.5 L1,12 Z" fill="#3478db" stroke="#ffffff" stroke-width="1.3" stroke-linejoin="round"/>
  </marker>
      <style>
        text { font-family: -apple-system, "Segoe UI", "Helvetica Neue", Arial, "Apple SD Gothic Neo", "Noto Sans CJK KR", "Noto Sans KR", sans-serif; }
        .mono { font-family: "SFMono-Regular", "Menlo", monospace; }
      </style>
    </defs>
<rect width="1800" height="2400" fill="#ffffff"/>
<rect x="0" y="0" width="1800" height="240" fill="#07150f"/>
<rect x="0" y="0" width="1800" height="9" fill="#18a87b"/>

    <text x="1760" y="45" text-anchor="end" font-size="15" font-weight="700" fill="#8fa299">업무 8 · 부서 4 · 단계 4</text>
    <text x="40" y="132" font-size="48" font-weight="850" fill="#ffffff">구매 요청·승인·발주 프로세스</text>
    <text x="40" y="174" font-size="19" font-weight="520" fill="#b7c7bf">요청부서의 구매 요청부터 부서장 승인·구매 발주·검수·대금 정산까지의 사내 업무 흐름</text>
    
  
<rect x="38" y="260" width="1724" height="1940" rx="10" fill="#ffffff" stroke="#b8c7bf" stroke-width="2"/>
<rect x="38" y="260" width="190" height="100" rx="10" fill="#eaf2ee"/>
<text x="58" y="299" font-size="17" font-weight="800" fill="#17231d">단계 ↓</text>
<text x="58" y="332" font-size="15" font-weight="650" fill="#68776f">부서·담당 →</text>
<rect x="38" y="360" width="1724" height="431.5" fill="#fbfcfb"/>
<rect x="38" y="360" width="190" height="431.5" fill="#e4f5ed"/>
<text x="58" y="392" class="mono" font-size="16" font-weight="800" fill="#0f4c81">S1</text>
<text x="58" y="425" font-size="19" font-weight="800" fill="#0f4c81"><tspan x="58" dy="0">요청</tspan></text>
<rect x="38" y="791.5" width="1724" height="431.5" fill="#87a6c0"/>
<rect x="38" y="791.5" width="190" height="431.5" fill="#0f4c81"/>
<text x="58" y="823.5" class="mono" font-size="16" font-weight="800" fill="#ffffff">S2</text>
<text x="58" y="856.5" font-size="19" font-weight="800" fill="#ffffff"><tspan x="58" dy="0">승인</tspan></text>
<rect x="38" y="1223" width="1724" height="545.5" fill="#fbfcfb"/>
<rect x="38" y="1223" width="190" height="545.5" fill="#eef3f0"/>
<text x="58" y="1255" class="mono" font-size="16" font-weight="800" fill="#53645b">S3</text>
<text x="58" y="1288" font-size="19" font-weight="800" fill="#53645b"><tspan x="58" dy="0">발주</tspan></text>
<rect x="38" y="1768.5" width="1724" height="431.5" fill="#f5f8f6"/>
<rect x="38" y="1768.5" width="190" height="431.5" fill="#eef3f0"/>
<text x="58" y="1800.5" class="mono" font-size="16" font-weight="800" fill="#53645b">S4</text>
<text x="58" y="1833.5" font-size="19" font-weight="800" fill="#53645b"><tspan x="58" dy="0">검수·정산</tspan></text>
<rect x="228" y="260" width="383.5" height="100" fill="#f7faf8"/>
<rect x="228" y="260" width="383.5" height="7" fill="#0f9f72"/>
<text x="248" y="299" font-size="20" font-weight="800" fill="#17231d">요청부서</text>
<text x="248" y="329" font-size="13.5" font-weight="600" fill="#68776f"><tspan x="248" dy="0">요청부서</tspan></text>
<rect x="611.5" y="260" width="383.5" height="100" fill="#f7faf8"/>
<rect x="611.5" y="260" width="383.5" height="7" fill="#3b82f6"/>
<text x="631.5" y="299" font-size="20" font-weight="800" fill="#17231d">부서장</text>
<text x="631.5" y="329" font-size="13.5" font-weight="600" fill="#68776f"><tspan x="631.5" dy="0">부서장</tspan></text>
<rect x="995" y="260" width="383.5" height="100" fill="#f7faf8"/>
<rect x="995" y="260" width="383.5" height="7" fill="#c78116"/>
<text x="1015" y="299" font-size="20" font-weight="800" fill="#17231d">구매팀</text>
<text x="1015" y="329" font-size="13.5" font-weight="600" fill="#68776f"><tspan x="1015" dy="0">구매팀</tspan></text>
<rect x="1378.5" y="260" width="383.5" height="100" fill="#f7faf8"/>
<rect x="1378.5" y="260" width="383.5" height="7" fill="#0891b2"/>
<text x="1398.5" y="299" font-size="20" font-weight="800" fill="#17231d">재무팀</text>
<text x="1398.5" y="329" font-size="13.5" font-weight="600" fill="#68776f"><tspan x="1398.5" dy="0">재무팀</tspan></text>
<line x1="228" y1="260" x2="228" y2="2200" stroke="#d3dcd7" stroke-width="1.5"/>
<line x1="611.5" y1="260" x2="611.5" y2="2200" stroke="#d3dcd7" stroke-width="1.5"/>
<line x1="995" y1="260" x2="995" y2="2200" stroke="#d3dcd7" stroke-width="1.5"/>
<line x1="1378.5" y1="260" x2="1378.5" y2="2200" stroke="#d3dcd7" stroke-width="1.5"/>
<line x1="1762" y1="260" x2="1762" y2="2200" stroke="#d3dcd7" stroke-width="1.5"/>
<line x1="38" y1="360" x2="1762" y2="360" stroke="#b8c7bf" stroke-width="2"/>
<line x1="38" y1="360" x2="1762" y2="360" stroke="#c8d3cd" stroke-width="1.5"/>
<line x1="38" y1="791.5" x2="1762" y2="791.5" stroke="#c8d3cd" stroke-width="1.5"/>
<line x1="38" y1="1223" x2="1762" y2="1223" stroke="#c8d3cd" stroke-width="1.5"/>
<line x1="38" y1="1768.5" x2="1762" y2="1768.5" stroke="#c8d3cd" stroke-width="1.5"/>
<line x1="38" y1="2200" x2="1762" y2="2200" stroke="#b8c7bf" stroke-width="2"/>
<path d="M 419.8 620.8 V 779.5 H 773.3 V 954.3" fill="none" stroke="#ffffff" stroke-width="7.4"  stroke-linecap="round" stroke-linejoin="round" opacity="0.94"/>
<path d="M 419.8 620.8 V 779.5 H 773.3 V 954.3" fill="none" stroke="#53675d" stroke-width="3.4"  marker-end="url(#arrow-sequence)" stroke-linecap="round" stroke-linejoin="round" opacity="0.96"/>
<path d="M 668.3 1003.3 H 595.8 V 1018.8 H 562.8" fill="none" stroke="#ffffff" stroke-width="8" stroke-dasharray="10 8" stroke-linecap="round" stroke-linejoin="round" opacity="0.94"/>
<path d="M 668.3 1003.3 H 595.8 V 1018.8 H 562.8" fill="none" stroke="#3478db" stroke-width="4" stroke-dasharray="10 8" marker-end="url(#arrow-loop)" stroke-linecap="round" stroke-linejoin="round" opacity="0.96"/>
<path d="M 554.8 1000.8 H 640.3 V 1016.3 H 660.3" fill="none" stroke="#ffffff" stroke-width="7.4"  stroke-linecap="round" stroke-linejoin="round" opacity="0.94"/>
<path d="M 554.8 1000.8 H 640.3 V 1016.3 H 660.3" fill="none" stroke="#53675d" stroke-width="3.4"  marker-end="url(#arrow-sequence)" stroke-linecap="round" stroke-linejoin="round" opacity="0.96"/>
<path d="M 845.3 1052.3 V 1179 H 1182.8 V 1385.8" fill="none" stroke="#ffffff" stroke-width="7.4"  stroke-linecap="round" stroke-linejoin="round" opacity="0.94"/>
<path d="M 845.3 1052.3 V 1179 H 1182.8 V 1385.8" fill="none" stroke="#53675d" stroke-width="3.4"  marker-end="url(#arrow-sequence)" stroke-linecap="round" stroke-linejoin="round" opacity="0.96"/>
<path d="M 1321.8 1450.3 H 1381.3 V 1504.8 H 1427.3" fill="none" stroke="#ffffff" stroke-width="7.4"  stroke-linecap="round" stroke-linejoin="round" opacity="0.94"/>
<path d="M 1321.8 1450.3 H 1381.3 V 1504.8 H 1427.3" fill="none" stroke="#53675d" stroke-width="3.4"  marker-end="url(#arrow-sequence)" stroke-linecap="round" stroke-linejoin="round" opacity="0.96"/>
<path d="M 1435.3 1496.8 H 1388.8 V 1570.8 H 1329.8" fill="none" stroke="#ffffff" stroke-width="7.4"  stroke-linecap="round" stroke-linejoin="round" opacity="0.94"/>
<path d="M 1435.3 1496.8 H 1388.8 V 1570.8 H 1329.8" fill="none" stroke="#53675d" stroke-width="3.4"  marker-end="url(#arrow-sequence)" stroke-linecap="round" stroke-linejoin="round" opacity="0.96"/>
<path d="M 1154.8 1597.8 V 1740.5 H 387.8 V 1931.3" fill="none" stroke="#ffffff" stroke-width="7.4" stroke-dasharray="11 8" stroke-linecap="round" stroke-linejoin="round" opacity="0.94"/>
<path d="M 1154.8 1597.8 V 1740.5 H 387.8 V 1931.3" fill="none" stroke="#0f8a65" stroke-width="3.4" stroke-dasharray="11 8" marker-end="url(#arrow-message)" stroke-linecap="round" stroke-linejoin="round" opacity="0.96"/>
<path d="M 1186.8 1597.8 V 1756.5 H 419.8 V 1931.3" fill="none" stroke="#ffffff" stroke-width="7.4"  stroke-linecap="round" stroke-linejoin="round" opacity="0.94"/>
<path d="M 1186.8 1597.8 V 1756.5 H 419.8 V 1931.3" fill="none" stroke="#53675d" stroke-width="3.4"  marker-end="url(#arrow-sequence)" stroke-linecap="round" stroke-linejoin="round" opacity="0.96"/>
<path d="M 554.8 1997.3 H 1407.3 V 1989.3 H 1427.3" fill="none" stroke="#ffffff" stroke-width="7.4"  stroke-linecap="round" stroke-linejoin="round" opacity="0.94"/>
<path d="M 554.8 1997.3 H 1407.3 V 1989.3 H 1427.3" fill="none" stroke="#53675d" stroke-width="3.4"  marker-end="url(#arrow-sequence)" stroke-linecap="round" stroke-linejoin="round" opacity="0.96"/>
<rect x="548.5" y="747.5" width="96" height="30" rx="6" fill="#ffffff" stroke="#53675d" stroke-width="1.4"/>
<text x="596.5" y="767.5" text-anchor="middle" font-size="14" font-weight="750" fill="#53675d">상신</text>
<rect x="563.5" y="979" width="96" height="30" rx="6" fill="#ffffff" stroke="#3478db" stroke-width="1.4"/>
<text x="611.5" y="999" text-anchor="middle" font-size="14" font-weight="750" fill="#3478db">반려</text>
<rect x="563.5" y="940.5" width="96" height="30" rx="6" fill="#ffffff" stroke="#53675d" stroke-width="1.4"/>
<text x="611.5" y="960.5" text-anchor="middle" font-size="14" font-weight="750" fill="#53675d">재상신</text>
<rect x="966" y="1147" width="96" height="30" rx="6" fill="#ffffff" stroke="#53675d" stroke-width="1.4"/>
<text x="1014" y="1167" text-anchor="middle" font-size="14" font-weight="750" fill="#53675d">승인</text>
<rect x="1330.5" y="1501.8" width="96" height="30" rx="6" fill="#ffffff" stroke="#53675d" stroke-width="1.4"/>
<text x="1378.5" y="1521.8" text-anchor="middle" font-size="14" font-weight="750" fill="#53675d">예산 확인</text>
<rect x="711.4" y="1708.5" width="119.8" height="30" rx="6" fill="#ffffff" stroke="#0f8a65" stroke-width="1.4"/>
<text x="771.3" y="1728.5" text-anchor="middle" font-size="14" font-weight="750" fill="#0f8a65">납품 예정 통보</text>
<rect x="947" y="1961.3" width="96" height="30" rx="6" fill="#ffffff" stroke="#53675d" stroke-width="1.4"/>
<text x="995" y="1981.3" text-anchor="middle" font-size="14" font-weight="750" fill="#53675d">검수 완료</text>

    <g filter="url(#card-shadow)">
      <rect x="280.8" y="526.8" width="278" height="98" rx="11" fill="none" stroke="#0f4c81" stroke-width="2.2" stroke-dasharray="7 5"/>
      <rect x="284.8" y="530.8" width="270" height="90" rx="8" fill="#eaf3fb" stroke="#2b7fc4" stroke-width="2.3"/>
      <rect x="284.8" y="530.8" width="6" height="90" rx="3" fill="#2b7fc4"/>
      <text x="299.8" y="550.8" class="mono" font-size="12.5" font-weight="750" fill="#2b6ca8">N1</text>
      <text x="351.8" y="550.8" font-size="11.5" font-weight="800" fill="#0f4c81">근거 · 구매관리규정 제5조</text>
      <rect x="494.8" y="537.8" width="50" height="24" rx="5" fill="#2b7fc4" opacity="0.14"/>
      <text x="519.8" y="554.8" text-anchor="middle" font-size="12" font-weight="800" fill="#123a5c">주관</text>
      <text x="299.8" y="587.8" font-size="15.5" font-weight="800" fill="#123a5c"><tspan x="299.8" dy="0">구매 요청서 작성·제출</tspan></text>
      <text x="299.8" y="612.8" font-size="11" font-weight="650" fill="#2b6ca8">품목·수량·희망 납기·예산 계정을 기재해 전…</text>
    </g>
  

    <g filter="url(#card-shadow)">
      <rect x="664.3" y="958.3" width="278" height="98" rx="11" fill="none" stroke="#0f4c81" stroke-width="2.2" stroke-dasharray="7 5"/>
      <rect x="668.3" y="962.3" width="270" height="90" rx="8" fill="#0f4c81" stroke="#0f4c81" stroke-width="2.3"/>
      <rect x="668.3" y="962.3" width="6" height="90" rx="3" fill="#0f4c81"/>
      <text x="683.3" y="982.3" class="mono" font-size="12.5" font-weight="750" fill="#cfe1f2">N2</text>
      <text x="735.3" y="982.3" font-size="11.5" font-weight="800" fill="#0f4c81">근거 · 전결규정 별표2</text>
      <rect x="878.3" y="969.3" width="50" height="24" rx="5" fill="#ffffff" opacity="0.18"/>
      <text x="903.3" y="986.3" text-anchor="middle" font-size="12" font-weight="800" fill="#ffffff">핵심</text>
      <text x="683.3" y="1019.3" font-size="15.5" font-weight="800" fill="#ffffff"><tspan x="683.3" dy="0">부서장 검토·승인</tspan></text>
      <text x="683.3" y="1044.3" font-size="11" font-weight="650" fill="#cfe1f2">요청 타당성과 예산 범위를 확인하고 전결 권…</text>
    </g>
  

    <g filter="url(#card-shadow)">
      
      <rect x="284.8" y="962.3" width="270" height="90" rx="8" fill="#fdecec" stroke="#d1434b" stroke-width="2.3"/>
      <rect x="284.8" y="962.3" width="6" height="90" rx="3" fill="#d1434b"/>
      <text x="299.8" y="982.3" class="mono" font-size="12.5" font-weight="750" fill="#b23239">N3</text>
      
      <rect x="494.8" y="969.3" width="50" height="24" rx="5" fill="#d1434b" opacity="0.14"/>
      <text x="519.8" y="986.3" text-anchor="middle" font-size="12" font-weight="800" fill="#7a1f24">반려</text>
      <text x="299.8" y="1019.3" font-size="15.5" font-weight="800" fill="#7a1f24"><tspan x="299.8" dy="0">반려 사유 보완·재상신</tspan></text>
      <text x="299.8" y="1044.3" font-size="11" font-weight="650" fill="#b23239">부서장이 반려하면 사유를 반영해 요청서를 보…</text>
    </g>
  

    <g filter="url(#card-shadow)">
      <rect x="1047.8" y="1389.8" width="278" height="98" rx="11" fill="none" stroke="#0f4c81" stroke-width="2.2" stroke-dasharray="7 5"/>
      <rect x="1051.8" y="1393.8" width="270" height="90" rx="8" fill="#ffffff" stroke="#c3ccd6" stroke-width="2.3"/>
      <rect x="1051.8" y="1393.8" width="6" height="90" rx="3" fill="#c3ccd6"/>
      <text x="1066.8" y="1413.8" class="mono" font-size="12.5" font-weight="750" fill="#5b6773">N4</text>
      <text x="1118.8" y="1413.8" font-size="11.5" font-weight="800" fill="#0f4c81">근거 · 구매관리규정 제12조</text>
      <rect x="1261.8" y="1400.8" width="50" height="24" rx="5" fill="#c3ccd6" opacity="0.14"/>
      <text x="1286.8" y="1417.8" text-anchor="middle" font-size="12" font-weight="800" fill="#1f2937">진행</text>
      <text x="1066.8" y="1450.8" font-size="15.5" font-weight="800" fill="#1f2937"><tspan x="1066.8" dy="0">업체 선정·견적 비교</tspan></text>
      <text x="1066.8" y="1475.8" font-size="11" font-weight="650" fill="#5b6773">3개사 이상 견적을 비교해 최적 조건의 공급업…</text>
    </g>
  

    <g filter="url(#card-shadow)">
      
      <rect x="1435.3" y="1450.8" width="270" height="90" rx="8" fill="#fff7ea" stroke="#d98a1a" stroke-width="2.3"/>
      <rect x="1435.3" y="1450.8" width="6" height="90" rx="3" fill="#d98a1a"/>
      <text x="1450.3" y="1470.8" class="mono" font-size="12.5" font-weight="750" fill="#a8620a">N5</text>
      
      <rect x="1645.3" y="1457.8" width="50" height="24" rx="5" fill="#d98a1a" opacity="0.14"/>
      <text x="1670.3" y="1474.8" text-anchor="middle" font-size="12" font-weight="800" fill="#7a4605">지연</text>
      <text x="1450.3" y="1507.8" font-size="15.5" font-weight="800" fill="#7a4605"><tspan x="1450.3" dy="0">예산·지출 검토</tspan></text>
      <text x="1450.3" y="1532.8" font-size="11" font-weight="650" fill="#a8620a">가용 예산과 지출 계정을 확인합니다. 예산 초…</text>
    </g>
  

    <g filter="url(#card-shadow)">
      
      <rect x="1051.8" y="1507.8" width="270" height="90" rx="8" fill="#ffffff" stroke="#c3ccd6" stroke-width="2.3"/>
      <rect x="1051.8" y="1507.8" width="6" height="90" rx="3" fill="#c3ccd6"/>
      <text x="1066.8" y="1527.8" class="mono" font-size="12.5" font-weight="750" fill="#5b6773">N6</text>
      
      <rect x="1261.8" y="1514.8" width="50" height="24" rx="5" fill="#c3ccd6" opacity="0.14"/>
      <text x="1286.8" y="1531.8" text-anchor="middle" font-size="12" font-weight="800" fill="#1f2937">진행</text>
      <text x="1066.8" y="1564.8" font-size="15.5" font-weight="800" fill="#1f2937"><tspan x="1066.8" dy="0">발주서 발행</tspan></text>
      <text x="1066.8" y="1589.8" font-size="11" font-weight="650" fill="#5b6773">확정된 조건으로 발주서를 발행하고 공급업체…</text>
    </g>
  

    <g filter="url(#card-shadow)">
      
      <rect x="284.8" y="1939.3" width="270" height="90" rx="8" fill="#ffffff" stroke="#c3ccd6" stroke-width="2.3"/>
      <rect x="284.8" y="1939.3" width="6" height="90" rx="3" fill="#c3ccd6"/>
      <text x="299.8" y="1959.3" class="mono" font-size="12.5" font-weight="750" fill="#5b6773">N7</text>
      
      <rect x="494.8" y="1946.3" width="50" height="24" rx="5" fill="#c3ccd6" opacity="0.14"/>
      <text x="519.8" y="1963.3" text-anchor="middle" font-size="12" font-weight="800" fill="#1f2937">진행</text>
      <text x="299.8" y="1996.3" font-size="15.5" font-weight="800" fill="#1f2937"><tspan x="299.8" dy="0">납품 검수</tspan></text>
      <text x="299.8" y="2021.3" font-size="11" font-weight="650" fill="#5b6773">납품 물품의 수량·규격·품질을 확인하고 검수…</text>
    </g>
  

    <g filter="url(#card-shadow)">
      <rect x="1431.3" y="1935.3" width="278" height="98" rx="11" fill="none" stroke="#0f4c81" stroke-width="2.2" stroke-dasharray="7 5"/>
      <rect x="1435.3" y="1939.3" width="270" height="90" rx="8" fill="#ffffff" stroke="#c3ccd6" stroke-width="2.3"/>
      <rect x="1435.3" y="1939.3" width="6" height="90" rx="3" fill="#c3ccd6"/>
      <text x="1450.3" y="1959.3" class="mono" font-size="12.5" font-weight="750" fill="#5b6773">N8</text>
      <text x="1502.3" y="1959.3" font-size="11.5" font-weight="800" fill="#0f4c81">근거 · 지급관리지침 제3조</text>
      <rect x="1645.3" y="1946.3" width="50" height="24" rx="5" fill="#c3ccd6" opacity="0.14"/>
      <text x="1670.3" y="1963.3" text-anchor="middle" font-size="12" font-weight="800" fill="#1f2937">진행</text>
      <text x="1450.3" y="1996.3" font-size="15.5" font-weight="800" fill="#1f2937"><tspan x="1450.3" dy="0">대금 지급·정산</tspan></text>
      <text x="1450.3" y="2021.3" font-size="11" font-weight="650" fill="#5b6773">검수 완료 및 세금계산서를 확인한 뒤 지급 조…</text>
    </g>
  

    <text x="38" y="2245" font-size="16" font-weight="800" fill="#18251e">읽는 법</text>
    <rect x="118" y="2219" width="17" height="17" rx="4" fill="#2b7fc4"/><text x="144" y="2233" font-size="14.5" fill="#526159">주관</text>
<rect x="216" y="2219" width="17" height="17" rx="4" fill="#0f4c81"/><text x="242" y="2233" font-size="14.5" fill="#526159">핵심</text>
<rect x="314" y="2219" width="17" height="17" rx="4" fill="#d98a1a"/><text x="340" y="2233" font-size="14.5" fill="#526159">지연</text>
<rect x="412" y="2219" width="17" height="17" rx="4" fill="#d1434b"/><text x="438" y="2233" font-size="14.5" fill="#526159">반려</text>
    <rect x="500" y="2219" width="17" height="17" rx="4" fill="none" stroke="#0f4c81" stroke-width="2" stroke-dasharray="5 4"/>
    <text x="526" y="2233" font-size="14.5" fill="#526159">근거</text>
    <line x1="648" y1="2237" x2="700" y2="2237" stroke="#53675d" stroke-width="4" marker-end="url(#arrow-sequence)"/>
    <text x="720" y="2243" font-size="15" fill="#526159">업무 흐름</text>
    <line x1="860" y1="2237" x2="912" y2="2237" stroke="#0f8a65" stroke-width="4" stroke-dasharray="10 8" marker-end="url(#arrow-message)"/>
    <text x="932" y="2243" font-size="15" fill="#526159">정보 공유</text>
    <line x1="1072" y1="2237" x2="1124" y2="2237" stroke="#3478db" stroke-width="4" stroke-dasharray="10 8" marker-end="url(#arrow-loop)"/>
    <text x="1144" y="2243" font-size="15" fill="#526159">반려·재작업</text>
    <text x="38" y="2291" font-size="15.5" font-weight="650" fill="#56655d">단계는 위→아래, 부서·담당은 좌→우로 읽습니다.</text>
    <text x="38" y="2321" font-size="14.5" fill="#68776f">원래 4개 부서·담당 레인을 4개 레이아웃 묶음으로 배치했으며, 8개 업무와 9개 연결 관계는 유지했습니다.</text>
    <text x="38" y="2361" font-size="13.5" fill="#7b8881">한솔 사내 업무 프로세스 모델 · 실제 결재·전결 권한은 사내 규정 및 전결 규정을 따릅니다.</text>
    
  
</g>
  <g>
    <rect x="0" y="360" width="1800" height="431.5" fill="#ffffff"><animate attributeName="opacity" dur="5.40s" repeatCount="indefinite" values="1;1;0;0" keyTimes="0;0.0000;0.1111;1" calcMode="linear"/></rect>
    <rect x="0" y="791.5" width="1800" height="431.5" fill="#ffffff"><animate attributeName="opacity" dur="5.40s" repeatCount="indefinite" values="1;1;0;0" keyTimes="0;0.1574;0.2685;1" calcMode="linear"/></rect>
    <rect x="0" y="1223" width="1800" height="545.5" fill="#ffffff"><animate attributeName="opacity" dur="5.40s" repeatCount="indefinite" values="1;1;0;0" keyTimes="0;0.3148;0.4259;1" calcMode="linear"/></rect>
    <rect x="0" y="1768.5" width="1800" height="431.5" fill="#ffffff"><animate attributeName="opacity" dur="5.40s" repeatCount="indefinite" values="1;1;0;0" keyTimes="0;0.4722;0.5833;1" calcMode="linear"/></rect>
  </g>
</svg>
